<svg xmlns="http://www.w3.org/2000/svg" width="50" height="60" viewBox="0 0 1814.173 1814.173"><defs><clipPath clipPathUnits="userSpaceOnUse" id="a"><path d="M286.099 1557.33c0-28.902 23.515-52.419 52.419-52.419 28.905 0 52.419 23.517 52.419 52.419 0 28.903-23.514 52.419-52.419 52.419-28.904 0-52.419-23.516-52.419-52.419"/></clipPath><clipPath clipPathUnits="userSpaceOnUse" id="b"><path d="M251.089 1624.29h108.158v-108.16H251.089v108.16z"/></clipPath><clipPath clipPathUnits="userSpaceOnUse" id="i"><path d="M2078.11 845.13h13.91v-19.128h-13.91v19.128z"/></clipPath><clipPath clipPathUnits="userSpaceOnUse" id="g"><path d="M1983.514 792.171c-18.114 0-32.933-14.819-32.933-32.933V627.859c0-18.113 14.819-32.933 32.933-32.933h119.197c18.114 0 32.933 14.82 32.933 32.933v131.379c0 18.114-14.819 32.933-32.933 32.933h-119.197z"/></clipPath><clipPath clipPathUnits="userSpaceOnUse" id="h"><path d="M1874.25 862.826h200.52V662.303h-200.52v200.523z"/></clipPath><clipPath clipPathUnits="userSpaceOnUse" id="e"><path d="M0 4629.055h3590.051V0H0v4629.055z"/></clipPath><clipPath clipPathUnits="userSpaceOnUse" id="f"><path d="M1958.82 783.938h31.19v-22.624h-31.19v22.624z"/></clipPath><clipPath clipPathUnits="userSpaceOnUse" id="c"><path d="M2003.689 848.926c-5.533 0-10.021-4.411-10.021-9.861l-9.391-39.449c-2.633-11.356-9.862-9.862-9.862-9.862v-9.863h138.072v9.863s-7.141.971-9.862 9.862l-8.765 39.449c-1.184 5.854-4.487 9.861-10.02 9.861h-80.151zm-29.274-240.916v-9.862s7.142-.964 9.862-9.862l8.765-39.449c0-5.441 4.484-9.862 10.021-9.862h80.149c5.535 0 8.972 4.632 10.018 9.862l9.395 39.449c2.629 11.355 9.862 9.862 9.862 9.862v9.862h-138.072zm.035-9.865l.028-.002-.028.002"/></clipPath><clipPath clipPathUnits="userSpaceOnUse" id="d"><path d="M1961.97 624.541h226.16v-92.527h-226.16v92.527z"/></clipPath></defs><g clip-path="url(#a)" transform="matrix(5.09748 0 0 -5.09748 -1242.319 9361.138)"><g clip-path="url(#b)" opacity=".05"><path d="M359.247 1570.207c0-29.866-24.212-54.078-54.08-54.078-29.866 0-54.078 24.212-54.078 54.078 0 29.867 24.212 54.079 54.079 54.079s54.079-24.212 54.079-54.079" fill="#fff"/></g></g><path d="M519.893 1419.349s38.613 5.207 53.327 53.327l47.39 213.313c6.558 32.623 24.246 53.333 54.186 53.333h433.397c29.924 0 47.969-20.71 54.166-53.333l50.801-213.313c14.222-61.4 53.327-53.327 53.327-53.327v-53.327H519.893v53.327zm746.048-1036.12c.19.017.34.033.546.05 0 0-38.608-5.257-53.327-53.333l-47.395-213.314c-6.402-31.54-24.263-53.322-54.181-53.322H678.187c-29.925 0-47.006 22.549-54.193 53.322L573.22 329.946c-14.243 61.405-53.327 53.332-53.327 53.332v53.327h746.594v-53.327s-.221-.022-.546-.049" fill="#c2996c" fill-rule="evenodd"/><g clip-path="url(#c)" transform="matrix(5.40733 0 0 -5.40733 -10156.415 4653.732)"><g clip-path="url(#d)" opacity=".15"><path d="M1961.975 599.71l137.762-67.696 88.389 92.527-226.151-24.831z"/></g></g><g clip-path="url(#e)" transform="matrix(5.40733 0 0 -5.40733 -10156.415 4653.732)"><path d="M2102.711 594.926h-119.198c-18.113 0-32.933 14.82-32.933 32.933v131.379c0 18.114 14.82 32.933 32.933 32.933h119.198c18.113 0 32.933-14.82 32.933-32.933v-131.38c0-18.112-14.82-32.932-32.933-32.932" fill="#333"/><path d="M1974.512 624.541h137.908v138.023h-137.908V624.541z" fill="#4e4e4e"/><path d="M2055.702 693.58c-.057 5.89 4.763 8.714 4.981 8.856-2.71 3.995-6.932 4.54-8.434 4.6-3.59.372-7.008-2.128-8.834-2.128-1.816 0-4.629 2.082-7.608 2.027-3.917-.064-7.526-2.292-9.542-5.834-4.068-7.113-1.043-17.652 2.924-23.42 1.938-2.827 4.247-5.996 7.278-5.88 2.924.114 4.03 1.907 7.561 1.907 3.53 0 4.522-1.908 7.611-1.849 3.144.056 5.134 2.881 7.058 5.711 2.224 3.274 3.14 6.447 3.194 6.61-.069.035-6.125 2.37-6.189 9.4m-5.559 18.135c1.812 1.893 3.037 4.53 2.704 7.158-2.61-.092-5.774-1.5-7.645-3.394-1.68-1.678-3.148-4.36-2.756-6.934 2.914-.197 5.886 1.275 7.697 3.17" fill="#fff" fill-rule="evenodd"/><g clip-path="url(#f)" opacity=".36"><path d="M1962.2 761.46a4.508 4.508 0 00-3.229 5.5c3.146 12.105 15.554 19.393 27.66 16.246a4.51 4.51 0 00-2.269-8.728c-7.293 1.895-14.767-2.496-16.663-9.787a4.51 4.51 0 00-5.499-3.23" fill="#fff"/></g></g><g clip-path="url(#g)" transform="matrix(5.40733 0 0 -5.40733 -10156.415 4653.732)"><g clip-path="url(#h)" opacity=".2"><path d="M2074.773 762.564c0-55.373-44.889-100.262-100.26-100.262-55.374 0-100.263 44.89-100.263 100.262 0 55.373 44.89 100.262 100.262 100.262s100.261-44.889 100.261-100.262" fill="#fff"/></g></g><g clip-path="url(#i)" opacity=".15" transform="matrix(5.40733 0 0 -5.40733 -10156.415 4653.732)"><path d="M2078.196 837.839a6.265 6.265 0 004.634 7.099 6.262 6.262 0 007.605-4.53 87.953 87.953 0 001.493-7.111 6.256 6.256 0 00-5.135-7.208 6.257 6.257 0 00-7.208 5.136 76.337 76.337 0 01-1.282 6.105c-.043.166-.079.34-.107.509"/></g></svg>